<svg version="1.1" xmlns="http://www.w3.org/2000/svg" viewBox="0 0 147.3758957342875 147.37589573428704" width="442.1276872028625" height="442.1276872028611">
  <!-- svg-source:excalidraw -->
  
  <defs>
    <style class="style-fonts">
      @font-face {
        font-family: "Virgil";
        src: url("https://excalidraw.com/Virgil.woff2");
      }
      @font-face {
        font-family: "Cascadia";
        src: url("https://excalidraw.com/Cascadia.woff2");
      }
      @font-face {
        font-family: "Assistant";
        src: url("https://excalidraw.com/Assistant-Regular.woff2");
      }
    </style>
    
  </defs>
  <g stroke-linecap="round" transform="translate(60.62627589031331 44.41908902263344) rotate(292.2311742918713 12.511477393129553 20.484456910586175)"><path d="M0 0 L25.02 0 L25.02 40.97 L0 40.97" stroke="none" stroke-width="0" fill="#268679"></path><path d="M0 0 C7.89 0, 15.77 0, 25.02 0 M0 0 C5.39 0, 10.77 0, 25.02 0 M25.02 0 C25.02 14.74, 25.02 29.48, 25.02 40.97 M25.02 0 C25.02 9.33, 25.02 18.66, 25.02 40.97 M25.02 40.97 C18.46 40.97, 11.9 40.97, 0 40.97 M25.02 40.97 C18.09 40.97, 11.17 40.97, 0 40.97 M0 40.97 C0 31.71, 0 22.45, 0 0 M0 40.97 C0 31.58, 0 22.19, 0 0" stroke="#268679" stroke-width="1" fill="none"></path></g><g stroke-linecap="round" transform="translate(10.000000000000227 10) rotate(0 63.687947867143635 63.68794786714358)"><path d="M127.38 63.69 C127.38 66.25, 127.22 68.82, 126.91 71.36 C126.6 73.9, 126.14 76.44, 125.53 78.93 C124.91 81.41, 124.14 83.88, 123.24 86.27 C122.33 88.66, 121.27 91.02, 120.08 93.29 C118.89 95.55, 117.56 97.76, 116.1 99.87 C114.65 101.97, 113.06 104.01, 111.36 105.92 C109.66 107.84, 107.84 109.66, 105.92 111.36 C104.01 113.06, 101.97 114.65, 99.87 116.1 C97.76 117.56, 95.55 118.89, 93.29 120.08 C91.02 121.27, 88.66 122.33, 86.27 123.24 C83.88 124.14, 81.41 124.91, 78.93 125.53 C76.44 126.14, 73.9 126.6, 71.36 126.91 C68.82 127.22, 66.25 127.38, 63.69 127.38 C61.13 127.38, 58.55 127.22, 56.01 126.91 C53.47 126.6, 50.93 126.14, 48.45 125.53 C45.96 124.91, 43.5 124.14, 41.1 123.24 C38.71 122.33, 36.36 121.27, 34.09 120.08 C31.82 118.89, 29.62 117.56, 27.51 116.1 C25.4 114.65, 23.37 113.06, 21.46 111.36 C19.54 109.66, 17.71 107.84, 16.02 105.92 C14.32 104.01, 12.73 101.97, 11.27 99.87 C9.82 97.76, 8.48 95.55, 7.3 93.29 C6.11 91.02, 5.05 88.66, 4.14 86.27 C3.23 83.88, 2.46 81.41, 1.85 78.93 C1.24 76.44, 0.77 73.9, 0.46 71.36 C0.16 68.82, 0 66.25, 0 63.69 C0 61.13, 0.16 58.55, 0.46 56.01 C0.77 53.47, 1.24 50.93, 1.85 48.45 C2.46 45.96, 3.23 43.5, 4.14 41.1 C5.05 38.71, 6.11 36.36, 7.3 34.09 C8.48 31.82, 9.82 29.62, 11.27 27.51 C12.73 25.4, 14.32 23.37, 16.02 21.46 C17.71 19.54, 19.54 17.71, 21.46 16.02 C23.37 14.32, 25.4 12.73, 27.51 11.27 C29.62 9.82, 31.82 8.48, 34.09 7.3 C36.36 6.11, 38.71 5.05, 41.1 4.14 C43.5 3.23, 45.96 2.46, 48.45 1.85 C50.93 1.24, 53.47 0.77, 56.01 0.46 C58.55 0.16, 61.13 0, 63.69 0 C66.25 0, 68.82 0.16, 71.36 0.46 C73.9 0.77, 76.44 1.24, 78.93 1.85 C81.41 2.46, 83.88 3.23, 86.27 4.14 C88.66 5.05, 91.02 6.11, 93.29 7.3 C95.55 8.48, 97.76 9.82, 99.87 11.27 C101.97 12.73, 104.01 14.32, 105.92 16.02 C107.84 17.71, 109.66 19.54, 111.36 21.46 C113.06 23.37, 114.65 25.4, 116.1 27.51 C117.56 29.62, 118.89 31.82, 120.08 34.09 C121.27 36.36, 122.33 38.71, 123.24 41.1 C124.14 43.5, 124.91 45.96, 125.53 48.45 C126.14 50.93, 126.6 53.47, 126.91 56.01 C127.22 58.55, 127.38 61.13, 127.38 63.69" stroke="#268679" stroke-width="4" fill="none"></path></g><g stroke-linecap="round" transform="translate(41.87520544080371 35.84585961097525) rotate(23.33404613971652 35.06065057024966 19.95473262284736)"><path d="M36 0 L70.12 20 L36 39.91 L0 20" stroke="none" stroke-width="0" fill="#268679" fill-rule="evenodd"></path><path d="M36 0 C49.59 7.96, 63.17 15.93, 70.12 20 M36 0 C49.36 7.83, 62.73 15.67, 70.12 20 M70.12 20 C57.82 27.18, 45.51 34.36, 36 39.91 M70.12 20 C56.67 27.85, 43.22 35.7, 36 39.91 M36 39.91 C25.24 33.96, 14.48 28.01, 0 20 M36 39.91 C25.48 34.09, 14.96 28.27, 0 20 M0 20 C14.09 12.17, 28.18 4.35, 36 0 M0 20 C14.33 12.04, 28.65 4.08, 36 0" stroke="#ffffff" stroke-width="1" fill="none"></path></g><g stroke-linecap="round"><g transform="translate(83.36416890937562 62.21658541878094) rotate(0 5.2546957227792745 3.7765901046872727)"><path d="M0 0 C1.35 0.48, 6.34 1.61, 8.1 2.87 C9.85 4.13, 10.11 6.77, 10.51 7.55 M0 0 C1.35 0.48, 6.34 1.61, 8.1 2.87 C9.85 4.13, 10.11 6.77, 10.51 7.55" stroke="#268679" stroke-width="1" fill="none"></path></g></g><mask></mask><g stroke-linecap="round"><g transform="translate(93.98747147677432 70.87936410975112) rotate(0 3.311788707035589 5.298872604030578)"><path d="M0 0 C0.05 1.07, -0.8 4.65, 0.31 6.42 C1.41 8.19, 5.57 9.9, 6.62 10.6 M0 0 C0.05 1.07, -0.8 4.65, 0.31 6.42 C1.41 8.19, 5.57 9.9, 6.62 10.6" stroke="#268679" stroke-width="1" fill="none"></path></g></g><mask></mask><g stroke-linecap="round"><g transform="translate(100.66081320583748 81.47822287824522) rotate(0 3.513837610577866 4.332809478662284)"><path d="M0 0 C0.97 0.57, 4.67 1.97, 5.84 3.41 C7.01 4.86, 6.83 7.79, 7.03 8.67 M0 0 C0.97 0.57, 4.67 1.97, 5.84 3.41 C7.01 4.86, 6.83 7.79, 7.03 8.67" stroke="#268679" stroke-width="1" fill="none"></path></g></g><mask></mask><g stroke-linecap="round" transform="translate(11.423391673306242 13.444967141080383) rotate(0 61.271948338344714 61.27194833834477)"><path d="M51.86 0.99 C60.6 -1.51, 70.5 0.16, 79.51 2.97 C88.51 5.78, 98.99 11.08, 105.87 17.86 C112.74 24.65, 118.05 34.51, 120.75 43.67 C123.45 52.82, 123.99 63.43, 122.05 72.79 C120.12 82.16, 115.24 92.38, 109.12 99.85 C103.01 107.32, 94.19 113.78, 85.36 117.61 C76.54 121.44, 65.69 123.49, 56.19 122.83 C46.69 122.17, 36.22 118.74, 28.34 113.65 C20.46 108.56, 13.56 100.39, 8.93 92.27 C4.3 84.15, 1.24 74.44, 0.55 64.93 C-0.15 55.43, 0.82 43.87, 4.76 35.24 C8.7 26.61, 15.18 18.84, 24.19 13.13 C33.2 7.42, 51.84 2.96, 58.81 0.99 C65.77 -0.97, 66.04 0.47, 65.98 1.36 M53.33 -0.04 C62.16 -1.84, 73.35 1.71, 82.42 5.13 C91.48 8.54, 101.22 13.8, 107.71 20.44 C114.2 27.08, 119.13 35.8, 121.37 44.97 C123.6 54.15, 123.24 65.88, 121.11 75.51 C118.99 85.15, 114.77 95.4, 108.61 102.78 C102.44 110.16, 92.97 116.74, 84.11 119.8 C75.25 122.86, 65.24 122.67, 55.46 121.13 C45.68 119.59, 33.69 115.71, 25.43 110.56 C17.17 105.41, 10.3 98.5, 5.91 90.2 C1.51 81.9, -0.95 70.25, -0.94 60.75 C-0.92 51.25, 1.34 41.63, 6 33.21 C10.66 24.79, 19.09 15.7, 27.03 10.25 C34.97 4.81, 49.28 2.02, 53.66 0.54 C58.04 -0.94, 53.14 0.19, 53.31 1.36" stroke="#ffffff" stroke-width="4" fill="none"></path></g><g stroke-linecap="round"><g transform="translate(47.79185236144599 96.85198776818811) rotate(0 28.53064524254785 7.4940271539333025)" fill-rule="evenodd"><path d="M0 0 C6.89 0.72, 30.6 4.25, 41.31 4.3 C52.03 4.35, 62.58 -1.49, 64.28 0.29 C65.98 2.07, 59.79 13.29, 51.52 14.99 C43.26 16.69, 24.47 10.64, 14.68 10.51 C4.89 10.38, -4.3 15.71, -7.22 14.22 C-10.13 12.73, -4.02 3.94, -2.82 1.57 C-1.62 -0.8, -0.47 0.26, 0 0" stroke="none" stroke-width="0" fill="#268679" fill-rule="evenodd"></path><path d="M0 0 C6.89 0.72, 30.6 4.25, 41.31 4.3 C52.03 4.35, 62.58 -1.49, 64.28 0.29 C65.98 2.07, 59.79 13.29, 51.52 14.99 C43.26 16.69, 24.47 10.64, 14.68 10.51 C4.89 10.38, -4.3 15.71, -7.22 14.22 C-10.13 12.73, -4.02 3.94, -2.82 1.57 C-1.62 -0.8, -0.47 0.26, 0 0 M0 0 C6.89 0.72, 30.6 4.25, 41.31 4.3 C52.03 4.35, 62.58 -1.49, 64.28 0.29 C65.98 2.07, 59.79 13.29, 51.52 14.99 C43.26 16.69, 24.47 10.64, 14.68 10.51 C4.89 10.38, -4.3 15.71, -7.22 14.22 C-10.13 12.73, -4.02 3.94, -2.82 1.57 C-1.62 -0.8, -0.47 0.26, 0 0" stroke="#268679" stroke-width="1" fill="none"></path></g></g><mask></mask></svg>